<?xml version="1.0" encoding="UTF-8"?> <svg xmlns="http://www.w3.org/2000/svg" xmlns:xlink="http://www.w3.org/1999/xlink" xmlns:xodm="http://www.corel.com/coreldraw/odm/2003" xml:space="preserve" width="2.95706in" height="0.768622in" version="1.1" style="shape-rendering:geometricPrecision; text-rendering:geometricPrecision; image-rendering:optimizeQuality; fill-rule:evenodd; clip-rule:evenodd" viewBox="0 0 165.06 42.9"> <defs> <style type="text/css"> .fil0 {fill:#FEFEFE} </style> </defs> <g id="Layer_x0020_1"> <metadata id="CorelCorpID_0Corel-Layer"></metadata> <g id="_2888094026816"> <path class="fil0" d="M20.49 0.17l0 0.17c1.85,0 3.49,1.11 3.49,2.96 0,3.06 -2.6,6.58 -4.35,8.91 -2.57,3.43 -4.44,5.36 -7,8.52 -0.19,0.23 -0.34,0.41 -0.51,0.62l-1 1.18c-0.17,0.22 -0.33,0.4 -0.51,0.62 -0.79,0.93 -0.85,0.74 -0.85,1.77 0,0.71 0.63,0.87 1.31,0.87 0.25,0 1.43,-1.3 1.68,-1.55 0.44,-0.44 1.15,-1.5 1.72,-1.5 0.52,0 0.56,0.56 0.44,0.96 -0.37,1.29 -4.72,5.41 -4.72,6.8 0,0.48 0.31,0.87 0.87,0.87 0.73,0 1.02,-0.65 1.78,-1.62l2.23 -2.83c0.26,-0.33 0.52,-0.63 0.77,-0.97 0.28,-0.38 1.21,-1.73 1.67,-1.73 0.67,0 0.54,0.62 0.36,1.09 -0.41,1.05 -1.66,1.96 -1.66,3.62 0,0.78 1.28,1.29 2.5,-0.56l1.22 -1.83c0.87,-1.21 1.66,-2.4 2.48,-3.63 1.82,-2.72 3.06,-4.75 4.51,-7.62 1.86,-3.68 2.9,-8.13 0.93,-12.04 -0.3,-0.59 -0.93,-1.25 -1.41,-1.64 -1.18,-0.95 -2.62,-1.64 -4.64,-1.64 -0.58,0 -0.81,0.16 -1.31,0.17zm-13.87 28.17c0,1 1,1.45 1.77,0.64 0.35,-0.37 1.46,-1.57 1.46,-2.03 0,-1 -1,-1.45 -1.77,-0.64 -0.2,0.22 -0.32,0.39 -0.52,0.62 -0.18,0.21 -0.34,0.41 -0.52,0.62 -0.18,0.22 -0.42,0.46 -0.42,0.8zm6.89 4.19c0,1.2 1.3,1.32 1.78,0.65 0.3,-0.41 1.36,-1.79 1.36,-2.22 0,-1.2 -1.3,-1.32 -1.78,-0.65l-0.96 1.4c-0.18,0.24 -0.4,0.45 -0.4,0.82zm-6.19 1.66c0,1.2 1.3,1.32 1.78,0.65 0.19,-0.26 0.33,-0.46 0.5,-0.72 0.51,-0.77 0.85,-1.03 0.85,-1.68 0,-0.85 -1.24,-1.23 -1.78,-0.48l-0.96 1.4c-0.18,0.24 -0.4,0.45 -0.4,0.82z"></path> <path class="fil0" d="M29.56 9.16c1.24,0 1.79,-0.01 2.53,0.52 2.4,1.72 0.17,6.52 -0.82,8.52l-7.54 12.34c-0.13,0.22 -0.25,0.36 -0.38,0.58 -0.27,0.43 -0.59,0.83 -0.59,1.33 0,0.62 0.51,1.05 1.13,1.05 0.53,0 1.81,-1.96 2.18,-2.53 0.2,-0.3 0.43,-0.53 0.64,-0.65 0.69,-0.37 0.91,0.4 0.53,1.15 -0.41,0.82 -3.35,5.42 -3.35,6.04 0,0.91 0.97,1.65 1.77,0.29l2.66 -4.49c0.32,-0.53 1.1,-2.08 1.5,-2.08 1.16,0 0.1,1.66 -0.11,2.15 -1.52,3.52 0.86,3.66 1.89,1.02l1.16 -2.33c0.77,-1.37 1.12,-2.26 1.74,-3.49l1.6 -3.54c0.55,-1.25 1.45,-3.77 1.78,-5.2 0.84,-3.66 0.5,-8.45 -3.03,-10.39 -1.44,-0.79 -1.95,-0.81 -3.55,-0.81 -0.62,0 -1.49,0.17 -1.74,0.52zm-7.76 32.7c0,0.69 0.36,1.05 1.05,1.05 0.67,0 0.85,-0.7 1.11,-1.16 0.33,-0.59 0.73,-1.07 0.73,-1.72 0,-0.5 -0.43,-0.87 -1.05,-0.87 -0.67,0 -0.85,0.7 -1.11,1.16 -0.19,0.33 -0.73,1.15 -0.73,1.54zm4.88 -2.27c0,1.14 1.22,1.37 1.76,0.63 0.38,-0.53 1.12,-1.88 1.12,-2.46 0,-0.76 -1.15,-1.29 -1.76,-0.45 -0.26,0.36 -1.12,1.94 -1.12,2.28zm-6.37 -2.97c0,0.69 0.36,1.05 1.05,1.05 0.62,0 0.9,-0.72 1.14,-1.13 0.33,-0.57 0.78,-1.13 0.78,-1.75 0,-0.5 -0.43,-0.87 -1.05,-0.87 -0.86,0 -1.92,2.6 -1.92,2.7z"></path> <path class="fil0" d="M3.66 11.86c0,0.44 -0.02,1.05 0.78,1.05 1.48,0 2.41,-2.62 3.66,-2.62 0.66,0 0.23,0.83 -0.12,1.27l-3.14 3.66c-0.26,0.34 -1.62,1.52 -0.89,2.36 0.13,0.15 1.06,0.62 1.75,-0.28l2.38 -2.85c0.61,-0.73 1.71,-2.6 2.81,-2.6 0.38,0 0.4,0.44 0.38,0.64 -0.05,0.35 -0.2,0.61 -0.35,0.87 -0.15,0.27 -0.29,0.45 -0.46,0.67 -0.08,0.1 -0.14,0.17 -0.19,0.23 -0.28,0.31 -0.34,0.79 -0.2,1.18 0.1,0.29 0.38,0.43 0.74,0.43 0.96,0 1.87,-1.56 2.72,-2.6 1.65,-2.01 4.29,-5.66 6.24,-7.28 0.86,-0.71 1.38,-0.85 2.38,-0.85 0.52,0 0.85,0.2 0.96,0.61l0.17 0c0.07,-0.82 0.73,-1.55 0.03,-3.17 -0.19,-0.44 -0.43,-0.68 -0.75,-1 -1.39,-1.39 -3.94,-1.06 -5.64,-0.54 -1.92,0.6 -5.74,3.12 -7.44,4.51 -0.35,0.28 -0.61,0.52 -0.95,0.79l-1.84 1.65c-0.57,0.58 -1.15,1.11 -1.7,1.7 -0.46,0.5 -1.33,1.5 -1.33,2.16zm3.66 6.8c0,0.69 0.36,1.05 1.05,1.05 0.58,0 0.91,-0.69 1.2,-1.07 0.43,-0.57 0.9,-0.99 0.9,-1.63 0,-0.5 -0.43,-0.87 -1.05,-0.87 -0.71,0 -2.09,2.27 -2.09,2.53zm-7.33 -2.62c0,1 1,1.45 1.77,0.64 0.2,-0.21 0.36,-0.43 0.55,-0.67 0.57,-0.73 0.91,-0.93 0.91,-1.62 0,-0.6 -0.91,-1.38 -1.77,-0.46l-1.05 1.3c-0.19,0.23 -0.41,0.43 -0.41,0.81zm0.52 5.14c0,1.23 1.31,1.49 1.91,0.69 0.2,-0.26 0.36,-0.48 0.55,-0.76 0.43,-0.63 0.94,-1.02 0.94,-1.76 0,-0.88 -1.25,-1.39 -1.91,-0.51 -0.34,0.45 -1.49,1.84 -1.49,2.35z"></path> <path class="fil0" d="M75.26 18.68l0.02 0.02 -0.17 0.28c-0.12,0.2 -0.26,0.39 -0.41,0.57 -0.03,0.04 -0.07,0.08 -0.1,0.11 0.17,0.13 0.32,0.27 0.47,0.42 0.28,0.28 0.56,0.56 0.78,0.89 0.35,0.5 0.6,1.05 0.8,1.62 0.2,0.59 0.31,1.19 0.31,1.81 0,0.78 -0.14,1.54 -0.44,2.25 -0.3,0.71 -0.73,1.34 -1.27,1.89 -0.54,0.56 -1.18,1 -1.9,1.3 -0.73,0.3 -1.5,0.44 -2.28,0.44l-7.42 0c-0.83,0 -1.31,-0.48 -1.31,-1.31l0 -16.01c0,-0.83 0.48,-1.32 1.31,-1.32l7.42 0c1.32,0 2.46,0.46 3.39,1.4 0.91,0.93 1.38,2.06 1.38,3.36 0,0.81 -0.19,1.57 -0.58,2.28zm9.32 -1.96c1.85,0 3.44,0.67 4.75,1.98 1.32,1.32 1.99,2.91 1.99,4.78 0,1.87 -0.67,3.46 -1.99,4.78 -1.31,1.31 -2.9,1.98 -4.75,1.98 -1.86,0 -3.45,-0.67 -4.77,-1.98 -1.32,-1.31 -1.97,-2.92 -1.97,-4.78 0,-1.86 0.66,-3.46 1.97,-4.78 1.31,-1.32 2.91,-1.98 4.77,-1.98zm19 13.17c-0.25,0.28 -0.59,0.39 -0.96,0.39 -0.38,0 -0.73,-0.14 -0.98,-0.43 -0.22,-0.25 -0.35,-0.56 -0.35,-0.89l0 -6.58c0,-0.81 -0.27,-1.5 -0.86,-2.07 -0.58,-0.56 -1.26,-0.85 -2.06,-0.85 -0.8,0 -1.48,0.29 -2.06,0.85 -0.58,0.57 -0.85,1.26 -0.85,2.07l0 6.58c0,0.36 -0.11,0.69 -0.38,0.93 -0.25,0.27 -0.59,0.39 -0.96,0.39 -0.16,0 -0.32,-0.02 -0.47,-0.07 -0.18,-0.07 -0.32,-0.18 -0.44,-0.32 -0.27,-0.24 -0.38,-0.57 -0.38,-0.93l0 -6.65c0,-1.52 0.57,-2.81 1.65,-3.88 1.08,-1.07 2.38,-1.62 3.9,-1.62 1.54,0 2.86,0.56 3.94,1.65 1.08,1.08 1.63,2.41 1.63,3.93l0 6.58c0,0.17 -0.02,0.35 -0.08,0.51 -0.06,0.17 -0.16,0.3 -0.29,0.42zm12.4 -0.99c-0.18,0.14 -0.36,0.26 -0.55,0.38 -0.52,0.33 -1.08,0.58 -1.67,0.75 -0.6,0.18 -1.22,0.25 -1.85,0.25 -1.86,0 -3.46,-0.66 -4.77,-1.98 -1.31,-1.32 -1.96,-2.92 -1.96,-4.78 0,-1.86 0.66,-3.46 1.96,-4.78 1.31,-1.33 2.91,-1.97 4.77,-1.97 3.78,0 6.75,2.98 6.75,6.76l0 5.04 -0 0.01c-0.01,0.19 -0.01,0.39 -0.04,0.58 -0.04,0.28 -0.16,0.53 -0.37,0.73 -0.26,0.26 -0.58,0.39 -0.94,0.39 -0.36,0 -0.69,-0.12 -0.95,-0.35l-0.02 -0.02 -0.02 -0.02c-0.23,-0.26 -0.35,-0.59 -0.35,-0.94l0 -0.05zm-44.56 -7.78c-0.28,0.03 -0.89,0 -1.09,0.01 -0.78,0 -1.56,0 -2.34,0 -1,0 -2.01,0 -3.01,0l0 6.52 6.1 0c0.91,0 1.66,-0.32 2.3,-0.96 0.64,-0.65 0.96,-1.4 0.96,-2.31 0,-0.41 -0.08,-0.81 -0.23,-1.18 -0.16,-0.38 -0.37,-0.75 -0.66,-1.06 -0.27,-0.3 -0.59,-0.54 -0.94,-0.71 -0.34,-0.17 -0.71,-0.26 -1.09,-0.29zm-6.45 -2.62c1.01,0 2.01,0 3.02,0 0.78,0 1.56,0 2.34,0 0.23,0 0.79,-0.03 1.08,0 0.48,-0.09 0.9,-0.3 1.24,-0.67 0.37,-0.41 0.57,-0.88 0.57,-1.43 0,-0.59 -0.19,-1.1 -0.61,-1.52 -0.42,-0.42 -0.94,-0.61 -1.53,-0.61l-6.1 0 0 4.23zm19.26 9.05l0.35 0c1.13,0 2.08,-0.38 2.88,-1.19 0.8,-0.8 1.18,-1.76 1.18,-2.89 0,-1.13 -0.39,-2.08 -1.18,-2.88 -0.79,-0.8 -1.75,-1.18 -2.88,-1.18 -1.13,0 -2.09,0.38 -2.88,1.18 -0.79,0.81 -1.19,1.76 -1.19,2.9 0,1.13 0.39,2.09 1.19,2.9 0.71,0.72 1.55,1.1 2.53,1.17zm27.68 0.06c1.14,0 2.1,-0.39 2.9,-1.2 0.8,-0.8 1.19,-1.75 1.19,-2.88 0,-1.14 -0.39,-2.11 -1.19,-2.92 -0.8,-0.81 -1.77,-1.18 -2.9,-1.18 -1.13,0 -2.09,0.38 -2.88,1.18 -0.79,0.81 -1.19,1.78 -1.19,2.91 0,1.13 0.39,2.09 1.19,2.9 0.8,0.81 1.75,1.2 2.88,1.2z"></path> <path class="fil0" d="M162.38 18.18l0 -5.02c0,-0.36 0.16,-0.68 0.39,-0.94l0.01 -0.02 0.02 -0.01c0.26,-0.24 0.57,-0.37 0.93,-0.37 0.36,0 0.69,0.13 0.96,0.38 0.26,0.26 0.39,0.59 0.39,0.95l0 10.48c0,1.87 -0.68,3.47 -2,4.8 -1.32,1.33 -2.93,1.98 -4.8,1.98 -1.87,0 -3.46,-0.66 -4.78,-1.98 -1.33,-1.33 -2.01,-2.92 -2.01,-4.8 0,-1.88 0.68,-3.47 2.01,-4.8 1.32,-1.32 2.91,-2.01 4.78,-2.01 1.27,0 2.45,0.32 3.53,0.97 0.2,0.12 0.39,0.24 0.57,0.38zm-34.66 1.14l0.95 -1.37 1.28 -1.86 1.33 -1.92 1.15 -1.64c0.34,-0.48 0.6,-0.88 1.27,-0.88 0.73,0 1.32,0.59 1.32,1.32l0 13.44 -0.03 2.63c0,0.83 -0.48,1.3 -1.31,1.3 -0.83,0 -1.32,-0.46 -1.32,-1.3l0 -11.8 -1.3 1.88 -2.21 3.24 -0.03 0.05c-0.24,0.4 -0.64,0.58 -1.09,0.58l-0.01 0c-0.46,-0.01 -0.85,-0.19 -1.09,-0.58l-0.03 -0.05 -2.21 -3.24 -1.3 -1.88 0 11.8c0,0.84 -0.49,1.3 -1.32,1.3 -0.82,0 -1.31,-0.47 -1.31,-1.3l-0.03 -2.63 0 -13.44c0,-0.74 0.59,-1.32 1.32,-1.32 0.66,0 0.93,0.4 1.27,0.88l1.15 1.64 1.33 1.92 1.28 1.86 0.95 1.37zm11.86 5.39c0.07,0.24 0.17,0.48 0.29,0.71 0.2,0.39 0.5,0.72 0.8,1.02 0.79,0.76 1.7,1.15 2.81,1.15 0.33,0 0.66,-0.04 0.98,-0.12 0.27,-0.07 0.53,-0.17 0.79,-0.28l0.11 -0.06c0.29,-0.15 0.55,-0.33 0.8,-0.54 0.25,-0.22 0.47,-0.46 0.66,-0.74 0.22,-0.3 0.54,-0.47 0.89,-0.54l0.04 -0.01 0.18 0c0.26,0 0.5,0.08 0.72,0.21 0.33,0.2 0.59,0.59 0.63,0.99 0.03,0.33 -0.07,0.65 -0.25,0.91 -0.31,0.44 -0.67,0.84 -1.07,1.19 -0.41,0.35 -0.85,0.66 -1.33,0.91 -0.98,0.51 -2.03,0.78 -3.13,0.78 -1.86,0 -3.48,-0.65 -4.79,-1.98 -1.31,-1.32 -1.97,-2.92 -1.97,-4.77l0 -0.19c0,-1.83 0.74,-3.42 2.05,-4.69 1.3,-1.27 2.89,-1.91 4.71,-1.91 1.83,0 3.42,0.62 4.73,1.91 0.63,0.61 1.13,1.34 1.48,2.15 0.32,0.72 0.5,1.48 0.53,2.27 0.02,0.32 -0.01,0.61 -0.14,0.91 -0.21,0.51 -0.67,0.74 -1.21,0.74l-9.32 0zm15.79 1.79c1.62,1.61 4.19,1.63 5.81,0.01 0.81,-0.81 1.19,-1.77 1.19,-2.91 0,-1.15 -0.39,-2.1 -1.19,-2.92 -0.8,-0.82 -1.76,-1.2 -2.9,-1.2 -1.14,0 -2.1,0.4 -2.9,1.21 -0.8,0.81 -1.21,1.77 -1.21,2.91 0,1.14 0.4,2.11 1.21,2.91zm-8.08 -4.39c-0.09,-0.22 -0.19,-0.42 -0.31,-0.62 -0.21,-0.35 -0.45,-0.68 -0.75,-0.96 -0.37,-0.35 -0.81,-0.59 -1.28,-0.77 -0.48,-0.18 -0.98,-0.27 -1.49,-0.27 -1.06,0 -1.96,0.38 -2.75,1.09l-0.15 0.14c-0.4,0.41 -0.7,0.88 -0.9,1.4l7.63 0z"></path> </g> </g> </svg> 